<?xml version="1.0" encoding="utf-8"?>
<!-- Generator: Adobe Illustrator 23.0.2, SVG Export Plug-In . SVG Version: 6.00 Build 0)  -->
<svg version="1.1" id="Layer_1" xmlns="http://www.w3.org/2000/svg" xmlns:xlink="http://www.w3.org/1999/xlink" x="0px" y="0px"
	 viewBox="0 0 876.9 189.5" style="enable-background:new 0 0 876.9 189.5;" xml:space="preserve">
<style type="text/css">
	.st0{fill:#030303;}
	.st1{fill:#FDFDFD;}
</style>
<g>
	<path class="st0" d="M392.1,188.9c-27.4-5.1-50-23-62.6-49.6c-7.9-16.6-10.9-33.9-9.3-52.9c3.4-40,29.7-73.2,65.4-82.5
		c10.7-2.8,28.1-2.9,38.6-0.1c10.1,2.6,15.9,5.3,25.6,11.6c20.9,13.8,35.7,38.2,39.7,65.7c2,13,2,16.4,0,29.4
		c-5.5,37.1-29.9,66.7-63.4,76.5C418.8,189.2,399.4,190.2,392.1,188.9z M424.2,184.3c27.9-7.5,50.1-30.3,59.6-61.2
		c2.5-8.2,2.7-10,2.7-27.3c0-20-0.8-24.5-6.8-38.8c-10.5-25-31.9-44.1-56.2-50.2c-10.7-2.7-26.4-2.7-36.8,0
		c-19,4.8-35.6,16.8-47.5,34.2c-4.9,7.3-10.8,20.4-13.2,29.3c-3.3,12.1-3.7,33.9-1,46.2c4.1,18.8,11.6,32.8,24.6,45.9
		c12.9,12.9,26.6,20.5,42.6,23.3C399.4,187,417.2,186.2,424.2,184.3z"/>
	<path class="st0" d="M390.1,169.2c-18.6-4.8-34.7-18.2-43.9-36.4c-6.9-13.4-8.5-20.5-8.5-36.5c0-16.4,1.3-22.5,7.9-36
		c25.7-52.9,94.6-52.3,119.5,1c5.8,12.4,7.4,19.9,7.4,35c0,10.3-0.5,14.6-2.2,20.8c-7.4,26-26.6,46.1-49.8,52.1
		C412.8,171.2,397.6,171.2,390.1,169.2z M418.4,166.3c17-3.6,33.5-16.9,42.6-34.5c6.3-12.1,8.5-21.2,8.4-36c0-15-1.5-21.6-8.1-35
		c-7.8-16.1-22.6-29.1-39.2-34.6c-7.4-2.5-25.3-2.5-32.8-0.2c-11,3.5-18.4,8-26.7,16.3C351,53.9,344.9,65.1,341.7,81
		c-3.4,16.7-1.3,32.5,6.5,48.7c4.4,8.9,6.3,11.6,13.7,19.1c7.1,7.2,10.2,9.5,17.2,12.8C391.9,167.8,404.5,169.3,418.4,166.3z"/>
	<path class="st0" d="M1.3,187.6C-0.4,185.9-0.4,6.7,1.3,5S23,3.5,31.6,5.3C54.2,10.1,71,28.8,78.7,57.5c5.6,20.9,3.9,39.1-5.2,57.3
		c-5.4,10.8-15.8,22.4-24.5,27.3l-6,3.4l17.1,19.4c9.3,10.7,17,19.9,17,20.6c0,2.3-3.9,3.3-13.5,3.3c-11.3,0-8.3,2.2-28.4-20.7
		c-7.3-8.4-13.7-15.3-14.2-15.3s-0.9,7.6-0.9,16.8c0,11.7-0.4,17.2-1.2,18c-0.7,0.7-4.2,1.2-8.8,1.2S2,188.3,1.3,187.6z M17.1,167.8
		v-18h3.3c2.9,0.1,4.7,1.7,19,18l15.7,18h9.1c5.2,0,8.9-0.4,8.7-0.9c-0.1-0.6-8.1-9.8-17.5-20.5c-9.5-10.8-17.3-19.8-17.3-20
		s2.8-1.7,6.3-3.4c8.2-4.1,14.8-9.9,20.7-18.4c8.5-12.1,14-28.8,14-42.5c0-7.9-3.6-24.5-7.3-33.3c-4.8-11.7-9-18.1-16.4-25.1
		C43.7,10.8,32.7,6.9,13.4,6.8H3.1v89.5v89.5h7h7V167.8z"/>
	<path class="st0" d="M18.4,132.1c-1-0.4-1.3-12.4-1.3-55.3V22.1l3-0.6c6.8-1.4,17.6,2.5,24.1,8.6c12.9,12.3,21.1,31,21.2,48.7
		c0.2,16.9-4.6,29.5-15.1,40.3C41.4,128.3,25.1,134.9,18.4,132.1z M34.5,126.3c7.6-3.4,13.1-7.8,18.1-14.5C58.1,104.3,60.8,97,62,87
		c1.6-14.7-2.7-31.6-11.5-44.4C42.4,30.7,34,24.9,24.9,24.8h-4.8v52.6V130l4.7-0.7C27.3,128.9,31.7,127.6,34.5,126.3z"/>
	<path class="st0" d="M103.3,187.6c-0.9-0.9-1.2-15.6-1.2-59.8V69.2l-3.2-0.9c-3-0.9-3.5-1.6-5.9-9.5c-3.3-10.6-2.8-12,4.1-12h5
		V26.5c0-14.5,0.3-20.6,1.2-21.5s7.5-1.2,23.5-1.2c25.7,0,24.3-0.6,24.3,10.5c0,10.6,0.2,10.5-15.5,10.5h-13.5v11v11h12.8
		c7,0,13.2,0.4,13.8,0.8c1.2,0.8,6.4,15.2,6.4,17.7c0,2.8-3.9,3.5-18.4,3.5h-14.6v49v49h13.5c15.8,0,15.5-0.2,15.5,11.4
		c0,11,1,10.6-24.9,10.6C110.7,188.8,104.2,188.5,103.3,187.6z M147.1,177.8v-8h-14h-14v-52v-52h16.5c9.1,0,16.5-0.3,16.5-0.6
		s-1.2-3.9-2.6-8l-2.7-7.4H133h-13.9v-14v-14h14h14v-7.5V6.8h-21h-21v21.5v21.5h-5.6h-5.6l0.7,2.8c0.3,1.5,1.3,5.1,2.1,8
		c1.5,5,1.7,5.2,5,5.2h3.4v59.3c0,32.7,0.3,59.7,0.7,60c0.3,0.4,9.8,0.7,21,0.7h20.3V177.8z"/>
	<path class="st0" d="M182.4,188.2c-1-0.5-1.3-17.7-1.3-81.5V25.8h-8c-6.8,0-8.1-0.3-9-1.9c-1.6-3-1.3-17.6,0.4-19
		c0.9-0.8,9.1-1.1,27.7-0.9l26.4,0.3l0.3,9.9c0.2,7.3-0.1,10.2-1,10.8c-0.7,0.4-4.8,0.8-9,0.8h-7.8l-0.2,81.3l-0.3,81.2l-8.5,0.2
		C187.4,188.6,183,188.4,182.4,188.2z M198.1,104.3V22.8h9h9v-8v-8h-25h-25v8v8h9h9v81.5v81.5h7h7V104.3z"/>
	<path class="st0" d="M231.3,187.6c-0.9-0.9-1.2-22.7-1.2-91.9c0-81.8,0.2-90.7,1.6-91.3c2.6-1,21.6-0.7,28,0.5
		c17.2,3.1,33.2,16.2,41.9,34.4c9.7,20.2,12.6,42.6,7.6,60c-5.3,19-16.8,34.9-30.9,43.1c-2.6,1.5-4.9,2.8-5.1,3
		c-0.2,0.2,7,8.7,16,19c12.3,14,16.4,19.3,16.4,21.3v2.6l-11.2,0.3l-11.2,0.3l-15.7-18.1c-8.7-9.9-16.2-18-16.6-18
		c-0.4,0-0.8,7.6-0.8,16.8c0,11.7-0.4,17.2-1.2,18c-0.7,0.7-4.2,1.2-8.8,1.2C235.5,188.8,232,188.3,231.3,187.6z M247.1,167.8v-18
		l3.3,0.1c2.9,0,4.7,1.8,18.7,17.9l15.5,17.9l9.3,0.1c8.6,0,9.2-0.1,8.2-1.7c-0.5-1-8.6-10.3-17.9-20.8l-16.9-19l4-1.7
		c19.5-8.6,34.9-32.2,37.3-57.6c1.3-12.8-4.1-34.6-12-48.8c-4.4-7.9-13.8-17.8-20.9-21.9c-8.8-5.2-15-6.7-29.3-7.2l-13.3-0.6v89.7
		v89.6h7h7V167.8z"/>
	<path class="st0" d="M248.4,132.1c-1-0.4-1.3-12.4-1.3-55.3V22.1l3-0.6c4.3-0.9,12.7,0.9,17.6,3.8c9.3,5.5,18.8,18.8,24.1,33.8
		c3,8.6,4.1,23.9,2.4,33.2c-2.3,12.6-11.4,26.5-21.7,33.1C264.1,130.8,252.8,133.9,248.4,132.1z M260.2,127.8
		c19.5-6.6,31.9-25.2,31.9-47.6c-0.1-27-19.4-55.4-37.6-55.4h-4.4v52.5C250.1,137.5,248.9,131.6,260.2,127.8z"/>
	<path class="st0" d="M534.3,187.6c-0.9-0.9-1.2-15.6-1.2-60c0-56.1-0.1-58.8-1.8-58.8c-3.5,0-5.3-2.6-7.7-11c-2.8-10-2.4-11,4.6-11
		h4.9v-12c0-9.5,0.4-13,2-17.3C539.8,5,554.6-2.3,569.3,0.7c10.8,2.1,17.2,6.3,21.1,13.6c2.2,4,2.2,4.2,2.5,87.9
		c0.2,61.8-0.1,84.2-0.9,85.2c-1.7,2.1-16.2,1.9-18.3-0.2c-1.4-1.4-1.6-8.2-1.6-60V68.8h-9h-9v58.8c0,44.4-0.3,59.1-1.2,60
		c-0.7,0.7-4.3,1.2-9.3,1.2S535,188.3,534.3,187.6z M550.9,125.6l0.2-59.8h12h12l0.2,59.8l0.3,59.7l7.3,0.3l7.2,0.3l-0.2-83.3
		c-0.3-77.3-0.4-83.5-2.1-86.5c-2.5-4.6-5.5-7.2-11.5-10c-4.8-2.3-6.4-2.5-14.5-2.1c-10.9,0.4-16.4,2.9-21,9.4
		c-3.8,5.5-4.6,9.7-4.7,24.2v12.2h-5.5c-3.3,0-5.5,0.4-5.5,1.1c0,0.6,0.9,4.2,2.1,8c2.1,6.8,2.2,6.9,5.5,6.9h3.4v60v60.1l7.3-0.3
		l7.2-0.3L550.9,125.6z"/>
	<path class="st0" d="M551.1,37.9c0-6.6,0.3-12.7,0.6-13.6c1.8-4.5,14.2-6.1,20.2-2.5l3.2,2v13v13h-12h-12V37.9z M572.1,36.4
		c0-12.3-0.5-13.1-9-13.1s-9,0.8-9,13.1v10.4h9h9V36.4z"/>
	<path class="st0" d="M604.3,188c-1-0.7-1.2-19.8-1-92.3l0.3-91.4l10-0.3c21.8-0.7,34.8,3.8,47.6,16.7
		c11.5,11.5,18.3,26.3,22.5,48.6c5.1,27.8-10.6,61.5-34.7,74.2l-3.6,1.9l2.6,3.1c1.4,1.6,9,10.3,16.9,19.1
		c7.8,8.9,14.2,16.7,14.2,17.5c0,3-2.5,3.7-12.5,3.7h-10.1l-4.1-4.2c-2.2-2.4-9.3-10.4-15.8-17.8c-6.5-7.4-12.2-13.6-12.7-13.8
		c-0.4-0.2-0.8,7.1-0.8,16.1c0,20,0.1,19.7-10.3,19.7C608.8,188.8,605,188.4,604.3,188z M619.9,167.6l0.2-17.8h2.9
		c2.5,0,5.1,2.4,18.7,18l15.7,18h9.5c8.8,0,9.3-0.1,8.1-1.7c-0.8-0.9-8.9-10.3-18.1-20.7l-16.8-19l7.5-3.9
		c14.9-7.8,26.7-24.1,31.6-43.8c5.9-23.3-3.1-56.9-19.7-73.5c-11.6-11.7-20.7-15.3-40.1-16.1l-13.3-0.6v89.7v89.7l6.8-0.3l6.7-0.3
		L619.9,167.6z"/>
	<path class="st0" d="M621.4,132.2c-1-0.4-1.3-12.5-1.3-55.4V22l2.4-0.6c3.3-0.8,11.7,0.9,16.6,3.4c15.5,7.9,28.9,33.5,29,55.1
		c0,21.3-11,40.3-28.2,48.4C633,131.5,624.1,133.4,621.4,132.2z M637.8,125.8c11.4-5.2,21.1-16.7,24.9-29.5
		c2.6-8.7,2.4-25.8-0.4-34.3c-3.5-10.5-8.4-19.1-14.6-25.9c-6.9-7.5-13.6-11.3-20.1-11.3h-4.5v52.6V130l4.3-0.7
		C629.7,128.9,634.4,127.4,637.8,125.8z"/>
	<path class="st0" d="M766.6,188.1c-13.8-1.7-30.6-8.7-41-17.1c-30.4-24.4-41.3-75.6-24.8-116.2c8.7-21.6,25.6-39,44.9-46.3
		c14-5.3,33.5-7.6,34.8-4.1c0.3,0.9,0.6,5.1,0.6,9.4c0,9.7-1,11-8.3,11c-20.7,0.1-40.5,13.6-50.8,34.6c-5.8,11.9-7.9,21.4-7.9,35.6
		c0,23.9,7.3,42.6,22.1,56.2c9.7,9,25.8,15.5,38.5,15.6c2.2,0,4.5,0.5,5.2,1.2c1.6,1.6,1.6,18,0,19.6
		C778.8,188.7,773.2,189,766.6,188.1z M778.1,177.9v-7.8l-7.5-0.7c-33.3-3-56.5-29.4-60-68.1c-0.8-8.7,1-22.7,4.2-32.5
		c4.1-12.5,9-20.8,17.3-29c11.2-11.1,23-16.7,37.9-17.9l7.6-0.6l0.3-7.9l0.3-7.9l-8.3,0.6c-24.8,2-44.9,13.8-58.2,34.4
		c-19.2,29.7-20.7,71.2-3.8,103.8c3.8,7.2,6.6,10.9,14.2,18.5c9.7,9.8,15.6,13.6,27.4,18c6,2.3,18.4,4.7,24.9,4.9l3.7,0.1V177.9z"/>
	<path class="st0" d="M815.3,187.6c-0.9-0.9-1.2-15.6-1.2-60V68.8h-2.4c-3.7,0-5.1-2.1-7.5-11c-2.7-9.8-2.2-11,5-11h4.9V26.4
		c0-16.2,0.3-20.6,1.4-21.5c0.9-0.8,4.5-1.1,9.8-0.9l8.3,0.3l0.3,21.3l0.2,21.2h11.5h11.5V26.4c0-16.2,0.3-20.6,1.4-21.5
		c0.9-0.8,4.5-1.1,9.8-0.9l8.3,0.3l0.3,91.4c0.2,72.5,0,91.6-1,92.3c-2.4,1.5-15.5,0.9-17.2-0.8c-1.4-1.4-1.6-8.2-1.6-60V68.8h-11.5
		h-11.5v59.4c0,53.2-0.2,59.4-1.6,60C829.6,189.3,816.5,188.8,815.3,187.6z M831.1,125.8v-60h14.5h14.5l0.2,59.8l0.3,59.7l6.8,0.3
		l6.7,0.3V96.3V6.8h-7h-7v21.5v21.5h-14.5h-14.5V28.3V6.8h-7h-7v21.5v21.5h-6c-3.3,0-6,0.1-6,0.3c0,0.1,1.1,3.6,2.3,7.7
		c2.3,7.4,2.4,7.5,6,7.8l3.7,0.3v60v59.9h7h7V125.8z"/>
	<path class="st1" d="M392.2,185.7c-27.1-4.8-51.3-25.6-62.8-53.9c-4.8-12-6.5-23-6-39c0.5-16.8,2.5-25.9,8.7-38.8
		c9.4-19.6,23-33.9,40.4-42.2c20.3-9.7,46.1-9.4,66,0.6c22.4,11.3,37.8,30.8,45.9,57.9c1.8,6,2.1,9.6,2.1,25.5
		c0,17.3-0.2,19.1-2.7,27.3c-9.5,30.9-31.7,53.7-59.6,61.2C417.2,186.2,399.4,187,392.2,185.7z M420.5,169.2
		c23.2-6,42.4-26.1,49.8-52.1c2.9-10.4,3.1-30.4,0.4-40.8c-4.1-15.9-13.7-31.4-25-40.6C412.3,8.5,365.1,20,345.6,60.3
		c-6.6,13.5-7.9,19.6-7.9,36c0,16,1.6,23.1,8.5,36.5c9.2,18.2,25.3,31.6,43.9,36.4C397.6,171.2,412.8,171.2,420.5,169.2z"/>
	<path class="st1" d="M3.1,96.3V6.8h10.3c19.3,0.1,30.3,4,42,14.9c7.4,7,11.6,13.4,16.4,25.1c3.7,8.8,7.3,25.4,7.3,33.3
		c0,13.7-5.5,30.4-14,42.5c-5.9,8.5-12.5,14.3-20.7,18.4c-3.5,1.7-6.3,3.2-6.3,3.4s7.8,9.2,17.3,20c9.4,10.7,17.4,19.9,17.5,20.5
		c0.2,0.5-3.5,0.9-8.7,0.9h-9.1l-15.7-18c-14.3-16.3-16.1-17.9-19-18h-3.3v18v18h-7h-7V96.3z M30.2,131.2
		c11.5-3.4,21.4-11.3,28.2-22.7C66,96,67.7,76.6,62.6,60.8c-5.2-16.2-14.2-29.1-25.1-35.6c-4.7-2.8-13.1-4.6-17.4-3.7l-3,0.6v54.7
		c0,42.9,0.3,54.9,1.3,55.3C20.7,133.1,24.8,132.8,30.2,131.2z"/>
	<path class="st1" d="M105.8,185.1c-0.4-0.3-0.7-27.3-0.7-60V65.8h-3.4c-3.3,0-3.5-0.2-5-5.2c-0.8-2.9-1.8-6.5-2.1-8l-0.7-2.8h5.6
		h5.6V28.3V6.8h21h21v7.5v7.5h-14h-14v14v14H133h13.8l2.7,7.4c1.4,4.1,2.6,7.7,2.6,8s-7.4,0.6-16.5,0.6h-16.5v52v52h14h14v8v8h-20.3
		C115.6,185.8,106.1,185.5,105.8,185.1z"/>
	<path class="st1" d="M184.1,104.3V22.8h-9h-9v-8v-8h25h25v8v8h-9h-9v81.5v81.5h-7h-7V104.3z"/>
	<path class="st1" d="M233.1,96.2V6.5l13.3,0.6c14.3,0.5,20.5,2,29.3,7.2c7.1,4.1,16.5,14,20.9,21.9c7.9,14.2,13.3,36,12,48.8
		c-2.4,25.4-17.8,49-37.3,57.6l-4,1.7l16.9,19c9.3,10.5,17.4,19.8,17.9,20.8c1,1.6,0.4,1.7-8.2,1.7l-9.3-0.1l-15.5-17.9
		c-14-16.1-15.8-17.9-18.7-17.9l-3.3-0.1v18v18h-7h-7V96.2z M261.3,130.7c12.8-4.3,22.1-12.6,28.3-25.3c8.5-17.2,7.1-39.5-3.6-59.6
		c-3.9-7.4-12.7-17.2-18.3-20.5c-4.9-2.9-13.3-4.7-17.6-3.8l-3,0.6v54.7c0,42.9,0.3,54.9,1.3,55.3
		C251,133.2,255.4,132.7,261.3,130.7z"/>
	<path class="st1" d="M536.1,125.8v-60h-3.4c-3.3,0-3.4-0.1-5.5-6.9c-1.2-3.8-2.1-7.4-2.1-8c0-0.7,2.2-1.1,5.5-1.1h5.5V37.6
		c0.1-14.5,0.9-18.7,4.7-24.2c4.6-6.5,10.1-9,21-9.4c8.1-0.4,9.7-0.2,14.5,2.1c6,2.8,9,5.4,11.5,10c1.7,3,1.8,9.2,2.1,86.5l0.2,83.3
		l-7.2-0.3l-7.3-0.3l-0.3-59.7l-0.2-59.8h-12h-12l-0.2,59.8l-0.3,59.7l-7.2,0.3l-7.3,0.3V125.8z M575.1,36.8v-13l-3.2-2
		c-6-3.6-18.4-2-20.2,2.5c-0.3,0.9-0.6,7-0.6,13.6v11.9h12h12V36.8z"/>
	<path class="st1" d="M606.1,96.2V6.5l13.3,0.6c19.4,0.8,28.5,4.4,40.1,16.1c7.3,7.3,14.2,19.9,18.1,33.2
		c3.9,12.9,4.5,28.9,1.6,40.3c-4.9,19.7-16.7,36-31.6,43.8l-7.5,3.9l16.8,19c9.2,10.4,17.3,19.8,18.1,20.7c1.2,1.6,0.7,1.7-8.1,1.7
		h-9.5l-15.7-18c-13.6-15.6-16.2-18-18.7-18h-2.9l-0.2,17.8l-0.3,17.7l-6.7,0.3l-6.8,0.3V96.2z M639.9,128.3
		c17.2-8.1,28.2-27.1,28.2-48.4c-0.1-21.6-13.5-47.2-29-55.1c-4.9-2.5-13.3-4.2-16.6-3.4l-2.4,0.6v54.8c0,42.9,0.3,55,1.3,55.4
		C624.1,133.4,633,131.5,639.9,128.3z"/>
	<path class="st1" d="M763,184.3c-16.8-2.8-28.3-8.8-40.9-21.5c-7.6-7.6-10.4-11.3-14.2-18.5c-16.9-32.6-15.4-74.1,3.8-103.8
		C725,19.9,745.1,8.1,769.9,6.1l8.3-0.6l-0.3,7.9l-0.3,7.9l-7.6,0.6c-14.9,1.2-26.7,6.8-37.9,17.9c-22.7,22.6-28.2,62.3-12.9,93.6
		c10.3,21,28.7,33.9,51.4,36l7.5,0.7v7.8v7.9l-3.7-0.1C772.3,185.6,767.2,185,763,184.3z"/>
	<path class="st1" d="M817.1,125.9v-60l-3.7-0.3c-3.6-0.3-3.7-0.4-6-7.8c-1.2-4.1-2.3-7.6-2.3-7.7c0-0.2,2.7-0.3,6-0.3h6V28.3V6.8h7
		h7v21.5v21.5h14.5h14.5V28.3V6.8h7h7v89.5v89.6l-6.7-0.3l-6.8-0.3l-0.3-59.7l-0.2-59.8h-14.5h-14.5v60v60h-7h-7V125.9z"/>
</g>
</svg>
