<?xml version="1.0" encoding="utf-8"?>
<!-- Generator: Adobe Illustrator 23.0.2, SVG Export Plug-In . SVG Version: 6.00 Build 0)  -->
<svg version="1.1"
	 id="Ebene_1" xmlns:cc="http://creativecommons.org/ns#" xmlns:dc="http://purl.org/dc/elements/1.1/" xmlns:rdf="http://www.w3.org/1999/02/22-rdf-syntax-ns#" xmlns:svg="http://www.w3.org/2000/svg"
	 xmlns="http://www.w3.org/2000/svg" xmlns:xlink="http://www.w3.org/1999/xlink" x="0px" y="0px" viewBox="0 0 227.7 129.1"
	 style="enable-background:new 0 0 227.7 129.1;" xml:space="preserve">
<style type="text/css">
	.st0{fill:url(#SVGID_1_);}
	.st1{fill:url(#SVGID_2_);}
	.st2{fill:url(#SVGID_3_);}
	.st3{fill:url(#SVGID_4_);}
	.st4{fill:url(#SVGID_5_);}
	.st5{fill:url(#SVGID_6_);}
	.st6{fill:url(#SVGID_7_);}
	.st7{fill:url(#SVGID_8_);}
	.st8{fill:url(#SVGID_9_);}
	.st9{fill:url(#SVGID_10_);}
	.st10{fill:#542209;}
</style>
<linearGradient id="SVGID_1_" gradientUnits="userSpaceOnUse" x1="24.5595" y1="50.1889" x2="24.5595" y2="118.1889" gradientTransform="matrix(1 0 0 -1 0 132)">
	<stop  offset="0" style="stop-color:#9B9B9B"/>
	<stop  offset="1" style="stop-color:#5B5C60"/>
</linearGradient>
<path class="st0" d="M4.7,118l1.1-2.6V16.3l-2.7-3.4h33.7l9.2,5.5v46.1L21,78.5v23.5h3.4L4.7,118z M20.7,61.6l10.8-6.5V28.9H20.7
	V61.6z"/>
<linearGradient id="SVGID_2_" gradientUnits="userSpaceOnUse" x1="70.7515" y1="50.1889" x2="70.7515" y2="118.1889" gradientTransform="matrix(1 0 0 -1 0 132)">
	<stop  offset="0" style="stop-color:#9B9B9B"/>
	<stop  offset="1" style="stop-color:#5B5C60"/>
</linearGradient>
<path class="st1" d="M85.1,12.9l6,6.9v78.7l-22,18.7L50.5,100V20.4l5.7-7.4C56.1,12.9,85.1,12.9,85.1,12.9z M65.7,27.5v60.9l9.1,8
	V27.5L65.7,27.5L65.7,27.5z"/>
<linearGradient id="SVGID_3_" gradientUnits="userSpaceOnUse" x1="115.1165" y1="50.1889" x2="115.1165" y2="118.1889" gradientTransform="matrix(1 0 0 -1 0 132)">
	<stop  offset="0" style="stop-color:#9B9B9B"/>
	<stop  offset="1" style="stop-color:#5B5C60"/>
</linearGradient>
<path class="st2" d="M95.9,115.7V16.3l-2.7-3.4h33.7l9.2,5.5V47l-14.2,8.1l14.2,7.6v26.1l0.9,0.8l-15.7,11.5V69.1l-10.3-5.4v40.7
	l2,3l-18.7,13.8L95.9,115.7z M110.8,46.7l10.8-6.5V28.9h-10.8V46.7z"/>
<linearGradient id="SVGID_4_" gradientUnits="userSpaceOnUse" x1="161.038" y1="50.1889" x2="161.038" y2="118.1889" gradientTransform="matrix(1 0 0 -1 0 132)">
	<stop  offset="0" style="stop-color:#9B9B9B"/>
	<stop  offset="1" style="stop-color:#5B5C60"/>
</linearGradient>
<path class="st3" d="M153,28.9h-12V16.3l-2.7-3.4h45.6l-2.7,3.4v12.6H168v77.2l2.2,3.2l-18.8,13.5l1.6-7.3L153,28.9L153,28.9z"/>
<linearGradient id="SVGID_5_" gradientUnits="userSpaceOnUse" x1="204.727" y1="50.1889" x2="204.727" y2="118.1889" gradientTransform="matrix(1 0 0 -1 0 132)">
	<stop  offset="0" style="stop-color:#9B9B9B"/>
	<stop  offset="1" style="stop-color:#5B5C60"/>
</linearGradient>
<path class="st4" d="M217,12.9l9.2,5.5v13.7h-16.2v-3.2h-9.1V49l25.3,13.7V85l-41.3,33l1.1-2.6V71.1h14.9v9.6l9.1-6.6v-5.5L186,55
	V16.3l-2.7-3.4H217z"/>
<linearGradient id="SVGID_6_" gradientUnits="userSpaceOnUse" x1="25.3535" y1="9.2417" x2="25.3535" y2="79.9911" gradientTransform="matrix(1 0 0 -1 0 132)">
	<stop  offset="0" style="stop-color:#F9DA55"/>
	<stop  offset="1" style="stop-color:#E04305"/>
</linearGradient>
<path class="st5" d="M46,55.6v9L21,78.5V102h3.4L4.7,118l1.1-2.6V78.6"/>
<linearGradient id="SVGID_7_" gradientUnits="userSpaceOnUse" x1="70.7335" y1="9.2417" x2="70.7335" y2="79.9911" gradientTransform="matrix(1 0 0 -1 0 132)">
	<stop  offset="0" style="stop-color:#F9DA55"/>
	<stop  offset="1" style="stop-color:#E04305"/>
</linearGradient>
<path class="st6" d="M91,77.6v20.9l-22,18.7L50.4,100V55.2l15.3,8.3v24.8l9.1,8V68.7L91,77.6z"/>
<linearGradient id="SVGID_8_" gradientUnits="userSpaceOnUse" x1="115.708" y1="9.2417" x2="115.708" y2="79.9911" gradientTransform="matrix(1 0 0 -1 0 132)">
	<stop  offset="0" style="stop-color:#F9DA55"/>
	<stop  offset="1" style="stop-color:#E04305"/>
</linearGradient>
<path class="st7" d="M111,70.9v33.4l2,3l-18.7,13.8l1.5-5.4V78.1 M132.2,60.6l3.9,2.1v26.1l0.9,0.8l-15.7,11.5V69l-3-1.6"/>
<linearGradient id="SVGID_9_" gradientUnits="userSpaceOnUse" x1="160.75" y1="9.2417" x2="160.75" y2="79.9911" gradientTransform="matrix(1 0 0 -1 0 132)">
	<stop  offset="0" style="stop-color:#F9DA55"/>
	<stop  offset="1" style="stop-color:#E04305"/>
</linearGradient>
<path class="st8" d="M168,68.4v37.6l2.2,3.2l-18.8,13.5l1.6-7.3V59"/>
<linearGradient id="SVGID_10_" gradientUnits="userSpaceOnUse" x1="205.521" y1="9.2417" x2="205.521" y2="79.9911" gradientTransform="matrix(1 0 0 -1 0 132)">
	<stop  offset="0" style="stop-color:#F9DA55"/>
	<stop  offset="1" style="stop-color:#E04305"/>
</linearGradient>
<path class="st9" d="M217,57.7l9.1,4.9V85l-41.3,33l1.1-2.6V71h14.9v9.6l9.1-6.6v-5.5l-7.7-4.4"/>
<polygon class="st10" points="6.3,77.4 44.5,55.3 45.5,57.1 7.3,79.2 "/>
<polygon class="st10" points="51.1,56.7 52,54.9 66.2,62.6 65.3,64.4 "/>
<polygon class="st10" points="75.3,69.8 76.3,68.1 90.9,76.7 89.9,78.4 "/>
<polygon class="st10" points="96,77.3 110.3,70 111.2,71.8 96.9,79.1 "/>
<polygon class="st10" points="118.4,66 129.8,60 130.8,61.8 119.4,67.8 "/>
<polygon class="st10" points="153.4,60 154.5,58.4 167,66.6 165.9,68.3 "/>
<polygon class="st10" points="202.2,62.9 215.1,57 216,58.8 203.1,64.7 "/>
<path d="M4.3,114.7V16.3L0,10.9h37.2l10.3,6.2V65l-25,13.9v21.2h6.1L5.7,118.7L1,122.5L4.3,114.7L4.3,114.7z M6.1,118.1l-1.4-0.6
	L6.1,118.1L6.1,118.1z M7.3,15.3v98.2l12.8-10.4h-0.7V77.1l25-13.9V18.8l-8.1-4.9l-30.1,0L7.3,15.3L7.3,15.3z M19.2,26.9H33v28.6
	l-11.6,6.9l-0.8-1.3l0.8,1.3l-2.3,1.4L19.2,26.9L19.2,26.9z M22.2,58.5l7.8-4.7V29.9l-7.8,0V58.5L22.2,58.5z"/>
<path d="M49,100.2V19.4l6.4-8.4h29.7v1.5v-1.5h0.7l6.8,7.8v80l-23.6,20L49,100.2L49,100.2z M52,20.4v78.5L69,114.7l20.5-17.4V19.9
	l-5.1-6H56.9L52,20.4L52,20.4z M64.2,88.6V27v-1.5h12.1v73.7L64.2,88.6L64.2,88.6z M67.2,87.2l6.1,5.3v-64h-6.1V87.2L67.2,87.2z
	 M65.7,28.5V27V28.5L65.7,28.5z"/>
<path d="M94.4,115l0-98.7l-4.3-5.4h37.2l10.3,6.2v30.3L125,54.6l12.6,6.7l0,26.3l1.9,1.6l-19.6,14.4V69.5l-7.3-3.8v37.8l2.6,3.8
	l-23.3,17.2L94.4,115L94.4,115z M97.4,115.4l-0.4,1.4l14-10.4l-1.5-2.2V60.7l13.3,7l0,30l11.8-8.6l0,0V63.1l-15.8-8.4l15.8-9V18.8
	l-8.1-4.9H96.3l1.1,1.4v99.9L97.4,115.4L97.4,115.4z M109.3,26.9h13.8v13.7l-11.5,6.9l-0.8-1.3l0.8,1.3l-2.3,1.4V26.9L109.3,26.9z
	 M112.3,43.6l7.8-4.7v-9h-7.8V43.6L112.3,43.6z"/>
<path d="M151.5,114.9v-85h-12V16.3l-4.3-5.4H187l-4.3,5.4v13.6h-13.1v75.3l2.7,4.1L149,125.9L151.5,114.9L151.5,114.9z M154.5,26.9
	v88.4l-0.8,3.6l14.4-10.4l-1.6-2.4V26.9h13.1V15.3l1.1-1.4h-39.3l1.1,1.4v11.6H153v1.5v-1.5H154.5L154.5,26.9z"/>
<path d="M184.5,114.7V69.1h17.9v8.1l6.1-4.4v-3.9l-23.9-13.5v-39l-4.3-5.4H217v1.5v-1.5h0.4l10.3,6.2v16h-19.2v-3.2h-6.1v17.8
	l25.3,13.7v23.9l-46.4,37.1L184.5,114.7L184.5,114.7z M187.5,113.5l37.2-29.7V63.1l-25.3-13.7V26.9h12.1l0,3.2h13.2V18.8l-8.1-4.9
	l-30.1,0l1.1,1.4l0,38.3l23.9,13.5v7.2l-12.1,8.8V72.1h-11.9L187.5,113.5L187.5,113.5z"/>
</svg>
