<svg version="1.0" id="svg2" xmlns="http://www.w3.org/2000/svg" x="0" y="0" viewBox="0 0 665 145" xml:space="preserve"><style>.st1{fill:#d12c00}.st2{fill:#333}</style><path d="M112 33.4V32l2.8-1.3c-.2-2-.7-3.9-1.3-5.8h-3c-.4-.9-.8-1.7-1.2-2.5l1.9-2.4c-1.1-1.7-2.3-3.2-3.7-4.6l-2.7 1.3c-.7-.6-1.4-1.2-2.2-1.7l.7-3c-1.7-1.1-3.4-1.9-5.3-2.6L95.9 12c-.9-.3-1.8-.5-2.7-.6l-.6-3c-1-.1-2-.2-3-.2s-2 .1-3 .2l-.6 3c-.9.1-1.8.4-2.7.6l-1.9-2.4c-1.9.7-3.7 1.5-5.3 2.6l.7 3c-.8.5-1.5 1.1-2.2 1.7l-2.7-1.3c-1.4 1.4-2.6 2.9-3.7 4.6l1.9 2.4c-.5.8-.9 1.6-1.2 2.5h-3c-.7 1.8-1.1 3.8-1.3 5.8l2.8 1.3V35l-2.8 1.3c.2 2 .7 3.9 1.3 5.8h3c.4.9.8 1.7 1.2 2.5L68.2 47c1.1 1.7 2.3 3.2 3.7 4.6l2.7-1.3c.7.6 1.4 1.2 2.2 1.7l-.7 3c1.7 1.1 3.4 1.9 5.3 2.6l1.9-2.4c.9.3 1.8.5 2.7.6l.6 3c1 .1 2 .2 3 .2s2-.1 3-.2l.6-3 2.7-.6 1.9 2.4c1.9-.7 3.7-1.5 5.3-2.6l-.7-3c.8-.5 1.5-1.1 2.2-1.7l2.7 1.3c1.4-1.4 2.6-2.9 3.7-4.6l-1.9-2.4c.5-.8.9-1.6 1.2-2.5h3c.7-1.8 1.1-3.8 1.3-5.8l-2.8-1.3c.2-.7.2-1.1.2-1.6zm-22.4 6.8c-3.7 0-6.8-3-6.8-6.8 0-3.7 3-6.8 6.8-6.8s6.8 3 6.8 6.8c0 3.7-3 6.8-6.8 6.8z" fill="#c1c1c1"/><path class="st1" d="M49 140.8c-16.8 0-25.1-8.4-25.1-25.1V90.6c0-16.8 8.4-25.1 25.1-25.1h33.5c16.8 0 25.1 8.4 25.1 25.1v25.1c0 16.8-7 25.1-20.9 25.1H49zm0-16.7h33.5c5.6 0 8.4-2.8 8.4-8.4V90.6c0-5.6-2.8-8.4-8.4-8.4H49c-5.6 0-8.4 2.8-8.4 8.4v25.1c0 5.6 2.8 8.4 8.4 8.4z"/><path d="M86.7 142.8H49v-4h37.7c6.6 0 11.1-1.9 14.2-5.6 3.1-3.7 4.8-9.5 4.8-17.6V90.5c0-8.1-2-13.7-5.7-17.4-3.7-3.7-9.4-5.7-17.4-5.7H49c-8.1 0-13.7 2-17.4 5.7-3.7 3.7-5.7 9.4-5.7 17.4v25.1c0 8.1 2 13.7 5.7 17.4 3.7 3.7 9.4 5.7 17.4 5.7v4c-8.7 0-15.6-2.2-20.3-6.9-4.7-4.7-6.9-11.6-6.9-20.3V90.6c0-8.7 2.2-15.6 6.9-20.3 4.7-4.7 11.6-6.9 20.3-6.9h33.5c8.7 0 15.6 2.2 20.3 6.9 4.7 4.7 6.9 11.6 6.9 20.3v25.1c0 8.6-1.8 15.4-5.7 20.1-3.9 4.7-9.8 7-17.1 7h-.2zm-4.2-16.7H49v-4h33.5c2.5 0 4-.6 4.9-1.5.9-.9 1.5-2.4 1.5-4.9V90.6c0-2.5-.6-4-1.5-4.9-.9-.9-2.4-1.5-4.9-1.5H49c-2.5 0-4 .6-4.9 1.5-.9.9-1.5 2.4-1.5 4.9v25.1c0 2.5.6 4 1.5 4.9.9.9 2.4 1.5 4.9 1.5v4c-3.1 0-5.8-.8-7.7-2.7-1.9-1.9-2.7-4.6-2.7-7.7V90.6c0-3.1.8-5.8 2.7-7.7 1.9-1.9 4.6-2.7 7.7-2.7h33.5c3.1 0 5.8.8 7.7 2.7 1.9 1.9 2.7 4.6 2.7 7.7v25.1c0 3.1-.8 5.8-2.7 7.7-1.9 1.9-4.6 2.7-7.7 2.7z"/><path class="st1" d="M116 140.8V65.4h58.6c16.8 0 25.1 7.7 25.1 23.1 0 15.3-8.4 23-25.1 23h-41.9v29.3H116zm67-46V82.2h-50.3v12.6H183z"/><path d="M116 142.8v-2h2-2v2h-2V63.4h60.6c8.7 0 15.5 2 20.2 6.3 4.7 4.3 6.9 10.8 6.9 18.8s-2.2 14.4-6.9 18.7c-4.7 4.3-11.5 6.3-20.2 6.3h-39.9v29.3H116zm2-4h12.8v-29.3h43.9c8.1 0 13.8-1.9 17.5-5.2 3.7-3.4 5.6-8.4 5.6-15.7 0-7.4-2-12.5-5.6-15.9-3.7-3.4-9.4-5.3-17.5-5.3H118v71.4zm12.8-42V80.2H185v16.6h-54.2zm52.2-2v-2 2zm-48.2-2.1H181v-8.6h-46.3l.1 8.6z"/><path class="st1" d="M208.2 65.4H292v16.8h-33.5v58.6h-16.8V82.2h-33.5V65.4z"/><path d="M239.7 142.8V84.2h-33.5V63.4H294v20.8h-33.5v58.6h-20.8zm-29.5-62.6h33.5v58.6h12.8V80.2H290V67.4h-79.8v12.8z"/><path class="st1" d="M300.3 140.8V65.4h16.8v75.4h-16.8z"/><path d="M300.3 142.8v-2h2-2v2h-2V63.4h20.8v79.4h-18.8zm2-4h12.8V67.4h-12.8v71.4z"/><g><path class="st1" d="M350.6 140.8c-16.8 0-25.1-8.4-25.1-25.1V90.6c0-16.8 8.4-25.1 25.1-25.1h33.5c16.8 0 25.1 8.4 25.1 25.1v25.1c0 16.8-7 25.1-20.9 25.1h-37.7zm0-16.7h33.5c5.6 0 8.4-2.8 8.4-8.4V90.6c0-5.6-2.8-8.4-8.4-8.4h-33.5c-5.6 0-8.4 2.8-8.4 8.4v25.1c0 5.6 2.8 8.4 8.4 8.4z"/><path d="M388.3 142.8h-37.7v-4h37.7c6.6 0 11.1-1.9 14.2-5.6 3.1-3.7 4.8-9.5 4.8-17.6v-25c0-8.1-2-13.7-5.7-17.4-3.7-3.7-9.4-5.7-17.4-5.7h-33.5c-8.1 0-13.7 2-17.4 5.7-3.7 3.7-5.7 9.4-5.7 17.4v25.1c0 8.1 2 13.7 5.7 17.4 3.7 3.7 9.4 5.7 17.4 5.7v4c-8.7 0-15.6-2.2-20.3-6.9-4.7-4.7-6.9-11.6-6.9-20.3v-25c0-8.7 2.2-15.6 6.9-20.3 4.7-4.7 11.6-6.9 20.3-6.9h33.5c8.7 0 15.6 2.2 20.3 6.9 4.7 4.7 6.9 11.6 6.9 20.3v25.1c0 8.6-1.8 15.4-5.7 20.1-3.9 4.7-9.8 7-17.1 7h-.3zm-4.2-16.7h-33.5v-4h33.5c2.5 0 4-.6 4.9-1.5.9-.9 1.5-2.4 1.5-4.9V90.6c0-2.5-.6-4-1.5-4.9-.9-.9-2.4-1.5-4.9-1.5h-33.5c-2.5 0-4 .6-4.9 1.5-.9.9-1.5 2.4-1.5 4.9v25.1c0 2.5.6 4 1.5 4.9.9.9 2.4 1.5 4.9 1.5v4c-3.1 0-5.8-.8-7.7-2.7-1.9-1.9-2.7-4.6-2.7-7.7V90.6c0-3.1.8-5.8 2.7-7.7 1.9-1.9 4.6-2.7 7.7-2.7h33.5c3.1 0 5.8.8 7.7 2.7 1.9 1.9 2.7 4.6 2.7 7.7v25.1c0 3.1-.8 5.8-2.7 7.7-1.9 1.9-4.6 2.7-7.7 2.7z"/></g><g><path class="st1" d="M417.6 140.8V65.4h58.6c16.8 0 25.1 8.4 25.1 25.1v50.3h-16.8V90.6c0-5.6-2.8-8.4-8.4-8.4h-41.9v58.6h-16.6z"/><path d="M482.7 142.8V90.6c0-2.5-.6-4-1.5-4.9-.9-.9-2.4-1.5-4.9-1.5h-39.9v58.6h-18.8v-2h2-2v2h-2V63.4h60.6c8.7 0 15.6 2.2 20.3 6.9 4.7 4.7 6.9 11.6 6.9 20.3v52.3l-20.7-.1zm1.3-59.9c1.9 1.9 2.7 4.6 2.7 7.7v48.3h12.8V90.6c0-8.1-2-13.7-5.7-17.4-3.7-3.7-9.4-5.7-17.4-5.7h-56.6v71.4h12.8V80.2h43.9c2.9 0 5.6.8 7.5 2.7z"/></g><g><path class="st1" d="M509.8 124.1h67v-12.6h-41.9c-16.8 0-25.1-7.6-25.1-22.7 0-15.6 8.4-23.4 25.1-23.4h58.6v16.8h-67v12.6h41.9c16.8 0 25.1 7.7 25.1 23 0 15.4-8.4 23-25.1 23h-58.6v-16.7z"/><path d="M568.4 142.8h-60.6V122h67v-8.6h-39.9c-8.7 0-15.5-1.9-20.2-6.2-4.7-4.2-7-10.6-6.9-18.5 0-8.1 2.2-14.6 6.9-19s11.5-6.4 20.2-6.4h60.6v20.8h-67v8.6h39.9c8.7 0 15.5 2 20.2 6.3 4.7 4.3 6.9 10.7 6.9 18.8 0 8-2.2 14.4-6.9 18.8-4.7 4.2-11.5 6.2-20.2 6.2zm-56.6-4h56.6c8.1 0 13.8-1.9 17.5-5.2 3.7-3.4 5.6-8.5 5.6-15.8 0-7.3-2-12.4-5.6-15.8-3.7-3.4-9.4-5.2-17.5-5.2h-43.9V80.2h67V67.4h-56.6c-8.1 0-13.8 1.9-17.5 5.3-3.7 3.4-5.6 8.6-5.6 16.1 0 7.2 2 12.2 5.6 15.5 3.7 3.3 9.4 5.2 17.5 5.2h43.9v16.6h-67v12.7z"/></g><g><path class="st2" d="M160.1 17.8c.7 0 1.1.4 1.1 1.1v4.6c0 .7-.4 1.1-1.1 1.1h-21c-1.2 0-2.3.1-3.1.3-.8.2-1.5.6-2 1.1-.5.5-.8 1.2-1 2-.2.8-.3 1.9-.3 3.1v.5h27.1c.7 0 1.1.4 1.1 1.1v3.8c0 .7-.4 1.1-1.1 1.1h-27.1v.8c0 1.2.1 2.3.3 3.1.2.8.5 1.5 1 2s1.2.8 2 1.1c.8.2 1.8.3 3.1.3h21c.7 0 1.1.4 1.1 1.1v4.6c0 .7-.4 1.1-1.1 1.1H139c-2.4 0-4.5-.2-6.2-.7-1.7-.4-3.1-1.2-4.2-2.2-1.1-1-1.9-2.3-2.4-3.9s-.7-3.6-.7-5.9v-8.3c0-2.3.2-4.3.7-5.9.5-1.6 1.3-2.9 2.4-3.9 1.1-1 2.5-1.7 4.2-2.2 1.7-.5 3.8-.7 6.2-.7h21.1zM202.3 25.1c2.1 0 3.9.2 5.4.6 1.5.4 2.6.9 3.5 1.7.9.8 1.5 1.8 1.9 3 .4 1.2.6 2.7.6 4.4v15.6c0 .7-.4 1.1-1.1 1.1H208c-.7 0-1.1-.4-1.1-1.1v-14c0-1-.1-1.8-.2-2.5s-.4-1.2-.7-1.6c-.4-.4-.8-.7-1.5-.9-.6-.2-1.5-.3-2.5-.3h-8.4v19.2c0 .7-.4 1.1-1.1 1.1h-4.7c-.7 0-1.1-.4-1.1-1.1V31.1h-8.2c-1 0-1.9.1-2.5.3-.7.2-1.2.5-1.6.9-.4.4-.7.9-.8 1.6-.2.7-.2 1.5-.2 2.5v13.9c0 .7-.4 1.1-1.1 1.1h-4.7c-.7 0-1.1-.4-1.1-1.1V34.8c0-1.7.2-3.2.6-4.4.4-1.2 1-2.2 1.9-3 .9-.8 2-1.4 3.5-1.7 1.5-.4 3.3-.6 5.4-.6h24.4zM225.3 25.1c.7 0 1.1.4 1.1 1.1V40c0 1 .1 1.9.2 2.5.1.7.4 1.2.7 1.6.4.4.8.7 1.5.9.6.2 1.5.3 2.5.3h12.3c1.1 0 1.9-.1 2.6-.3.7-.2 1.2-.5 1.6-.9.4-.4.7-.9.8-1.6.2-.7.2-1.5.2-2.5V26.2c0-.7.4-1.1 1.1-1.1h4.7c.7 0 1.1.4 1.1 1.1v15.6c0 1.7-.2 3.2-.6 4.4-.4 1.2-1 2.2-1.9 3-.9.8-2.1 1.4-3.5 1.7-1.5.4-3.3.5-5.4.5H231c-2.2 0-4-.2-5.4-.5-1.5-.4-2.6-.9-3.5-1.7-.9-.8-1.5-1.8-1.9-3-.4-1.2-.6-2.7-.6-4.4V26.2c0-.7.4-1.1 1.1-1.1h4.6zM296 17.8c.7 0 1.1.4 1.1 1.1v4.6c0 .7-.4 1.1-1.1 1.1h-21c-1.2 0-2.3.1-3.1.3-.8.2-1.5.6-2 1.1-.5.5-.8 1.2-1 2-.2.8-.3 1.9-.3 3.1v.5h27.1c.7 0 1.1.4 1.1 1.1v3.8c0 .7-.4 1.1-1.1 1.1h-27.1v.8c0 1.2.1 2.3.3 3.1.2.8.5 1.5 1 2s1.2.8 2 1.1c.8.2 1.8.3 3.1.3h21c.7 0 1.1.4 1.1 1.1v4.6c0 .7-.4 1.1-1.1 1.1h-21.1c-2.4 0-4.5-.2-6.2-.7-1.7-.4-3.1-1.2-4.2-2.2-1.1-1-1.9-2.3-2.4-3.9s-.7-3.6-.7-5.9v-8.3c0-2.3.2-4.3.7-5.9.5-1.6 1.3-2.9 2.4-3.9 1.1-1 2.5-1.7 4.2-2.2 1.7-.5 3.8-.7 6.2-.7H296zM308.3 15.4c.7 0 1.1.4 1.1 1.1v33.9c0 .7-.4 1.1-1.1 1.1h-4.7c-.7 0-1.1-.4-1.1-1.1V16.5c0-.7.4-1.1 1.1-1.1h4.7zM339.9 25.1c1.6 0 3 .1 4.1.4 1.1.3 1.9.7 2.5 1.3.6.6 1.1 1.4 1.3 2.4.3 1 .4 2.2.4 3.7v4.6c0 1-.2 1.7-.7 2.1-.4.4-1.1.6-2.1.6h-24.2v1.2c0 1.5.4 2.6 1.1 3.3.7.7 2.1 1 4.2 1h20c.6 0 .9.3.9.9v4c0 .6-.3.9-.9.9h-20.7c-2.2 0-4-.2-5.4-.5-1.5-.4-2.6-.9-3.5-1.7-.9-.8-1.5-1.8-1.9-3-.4-1.2-.6-2.7-.6-4.4V35c0-1.7.2-3.2.6-4.4.4-1.2 1-2.2 1.9-3 .9-.8 2-1.4 3.5-1.7 1.5-.4 3.3-.6 5.4-.6h14.1zm-18.7 10.8h19.4c.5 0 .8-.3.8-.8v-2c0-1-.2-1.7-.6-2.1-.4-.4-1.2-.6-2.3-.6h-12c-2.1 0-3.5.3-4.2 1-.7.7-1.1 1.8-1.1 3.3v1.2zM382.9 25.1c.6 0 .9.3.9.9v4c0 .6-.3.9-.9.9h-18.6c-1.1 0-1.9.1-2.6.3-.7.2-1.2.5-1.6.9-.4.4-.7.9-.8 1.6-.2.7-.2 1.5-.2 2.5v4.3c0 1 .1 1.9.2 2.5s.4 1.2.8 1.6c.4.4.9.7 1.6.9.7.2 1.5.3 2.6.3h18.6c.6 0 .9.3.9.9v4c0 .6-.3.9-.9.9h-19.3c-2.2 0-4-.2-5.4-.5-1.5-.4-2.6-.9-3.5-1.7-.9-.8-1.5-1.8-1.9-3-.4-1.2-.6-2.7-.6-4.4v-6.9c0-1.7.2-3.2.6-4.4.4-1.2 1-2.2 1.9-3s2-1.4 3.5-1.7c1.5-.4 3.3-.6 5.4-.6h19.3z"/></g></svg>